:SAMPLES-PER-SECOND 24
:FULLY-SPECIFIED
:DEGREES
179
root  1.56328 38.7626 32.9979 176.964 -71.4292 175.44
RightUpLeg  -4.86146 -11.6437 -22.8389
RightLeg  33.5201 2.06579 1.23568
RightFoot  4.70158 -2.61012 18.8519
RightToes  -1.74623e-010 0 -2.59999e-017
Spine  3.56651 -4.7974 -16.5869
Spine1  13.8305 -10.9946 15.0777
HEad  -16.8446 -37.5384 14.4714
LeftShoulder1  1.86001 -3.092 -21.8609
LeftArm  24.693 -2.71375 -57.2603
LeftForeArm  86.3439 -79.4928 -94.486
LeftHand  0.073716 6.62287 9.20816
RightShoulder  3.45999 5.66801 31.8448
RightArm  -11.236 -21.8823 35.2564
RightForeArm  11.1782 44.5981 10.281
RightHand  0.189398 -7.21553 -13.6962
LeftUpLeg  5.70065 15.9397 16.2984
LeftLeg  23.7926 -6.90931 -3.16071
LeftFoot  -8.85839 0.490432 -20.2339
LeftToes  -6.27559e-011 -2.10356e-011 8.24929e-012
180
root  1.18171 39.9257 32.7582 176.888 -74.8608 176.015
RightUpLeg  -4.62811 -12.3121 -22.208
RightLeg  33.1188 1.72223 0.96868
RightFoot  12.8613 -2.6218 12.682
RightToes  -1.74623e-010 0 -2.59999e-017
Spine  1.56292 -5.51751 -16.5861
Spine1  13.8941 -11.1754 14.2568
HEad  -13.0843 -40.3673 14.1448
LeftShoulder1  1.86453 -3.37313 -20.703
LeftArm  24.1496 5.13433 -55.3997
LeftForeArm  72.2597 -79.3615 -81.5874
LeftHand  0.0209059 5.93689 9.06841
RightShoulder  3.27251 5.3847 30.9323
RightArm  -8.13382 -27.4239 35.0181
RightForeArm  8.67024 48.6898 12.1388
RightHand  -0.0148298 -5.89408 -4.07085
LeftUpLeg  7.22474 11.4105 15.4776
LeftLeg  16.335 -0.751929 -1.49258
LeftFoot  -0.172661 2.00187 -20.2115
LeftToes  -6.27559e-011 -2.10356e-011 8.24929e-012
181
root  0.991239 40.4973 32.6072 177.375 -78.3362 176.16
RightUpLeg  -5.68166 -13.4479 -22.0705
RightLeg  33.9005 3.50937 2.29552
RightFoot  13.3294 -1.75017 8.41306
RightToes  -1.74623e-010 0 -2.59999e-017
Spine  0.50943 -6.37031 -16.4868
Spine1  14.3054 -11.6735 13.0598
HEad  -13.5655 -41.771 14.6842
LeftShoulder1  1.8595 -3.7105 -19.2697
LeftArm  22.792 8.11867 -53.7045
LeftForeArm  73.5683 -79.4434 -80.5394
LeftHand  -0.000769197 5.6237 9.55703
RightShoulder  2.90016 4.85756 28.7557
RightArm  -6.30865 -30.1536 35.0619
RightForeArm  14.0147 54.5048 14.7087
RightHand  0.0167922 -3.36498 2.09585
LeftUpLeg  6.60674 12.2109 15.8846
LeftLeg  15.3574 11.3492 0.853325
LeftFoot  5.11399 2.68407 -18.6368
LeftToes  -6.27559e-011 -2.10356e-011 8.24929e-012
182
root  0.96799 40.5151 32.5762 173.427 -80.7362 -179.29
RightUpLeg  -7.15128 -12.045 -21.4009
RightLeg  32.0298 5.37746 3.38479
RightFoot  10.0251 -1.74762 9.6316
RightToes  -1.74623e-010 0 -2.59999e-017
Spine  1.28229 -6.78457 -15.8406
Spine1  13.5019 -12.0533 13.1682
HEad  -15.629 -41.4542 15.5461
LeftShoulder1  1.7895 -3.68733 -18.3074
LeftArm  20.6784 8.07243 -52.8204
LeftForeArm  75.2227 -79.473 -82.9426
LeftHand  0.0386409 6.03549 10.5871
RightShoulder  2.60512 4.46426 26.7062
RightArm  -5.27626 -30.1088 33.0094
RightForeArm  18.9033 60.771 18.7097
RightHand  0.0203702 -3.06943 1.83535
LeftUpLeg  5.92035 18.1059 18.0522
LeftLeg  17.5391 21.1093 3.85143
LeftFoot  8.34861 2.58174 -15.0464
LeftToes  -6.27559e-011 -2.10356e-011 8.24929e-012
183
root  1.06803 39.9065 32.5276 166.512 -82.3203 -171.527
RightUpLeg  -9.49691 -6.98044 -20.768
RightLeg  28.2612 6.96993 3.82445
RightFoot  6.80535 -1.64395 10.5232
RightToes  -1.74623e-010 0 -2.59999e-017
Spine  3.10122 -6.81728 -15.864
Spine1  11.147 -12.2392 14.4654
HEad  -16.523 -39.8049 15.1491
LeftShoulder1  1.69738 -3.43166 -17.8697
LeftArm  18.9399 5.51819 -52.3157
LeftForeArm  72.6031 -79.3796 -81.8224
LeftHand  0.065676 6.21474 12.007
RightShoulder  2.59604 4.49247 26.4628
RightArm  -4.31233 -27.3188 27.1597
RightForeArm  21.9153 65.7481 23.6331
RightHand  -0.0318686 -4.79237 -1.76717
LeftUpLeg  4.58542 28.5148 21.2329
LeftLeg  20.8585 15.0922 4.68598
LeftFoot  6.25855 2.49106 -16.3063
LeftToes  -6.27559e-011 -2.10356e-011 8.24929e-012
